{"title":"Hassel  S01 E04 - 1080p x265 HEVC - SWE (ENG SUBS) [BRSHNKV]","magnet":"magnet:?xt=urn:btih:0e62f9979b9dc111208731f02b21838d88577dd6&dn=Hassel++S01+E04+-+1080p+x265+HEVC+-+SWE+%28ENG+SUBS%29+%5BBRSHNKV%5D&tr=udp%3A%2F%2Ftracker.leechers-paradise.org%3A6969&tr=udp%3A%2F%2Fzer0day.ch%3A1337&tr=udp%3A%2F%2Fopen.demonii.com%3A1337&tr=udp%3A%2F%2Ftracker.coppersurfer.tk%3A6969&tr=udp%3A%2F%2Fexodus.desync.com%3A6969","uploader":"BRSHNKV","categoryP":"video","categoryS":"hd___tv_shows","size":"390195308","seeders":"9","leechers":"5","description":" <a href=\"http://www.imdb.com/title/tt6038946/?ref_=fn_al_tt_1\" rel=\"nofollow\" target=\"_NEW\">http://www.imdb.com/title/tt6038946/?ref_=fn_al_tt_1</a>\r\n\r\nFormat                                   : MPEG-4\r\nFormat profile                           : Base Media / Version 2\r\nCodec ID                                 : mp42\r\nFile size                                : 372 MiB\r\nDuration                                 : 43mn 6s\r\nOverall bit rate mode                    : Variable\r\nOverall bit rate                         : 1 207 Kbps\r\nMovie name                               : Hassel S01 E04 - 1080p x265 HEVC [BRSHNKV]\r\nEncoded date                             : UTC 2018-03-26 13:41:57\r\nTagged date                              : UTC 2018-03-26 13:41:57\r\nWriting application                      : HandBrake 20160211184813-ffd8cb1-master 2016021301\r\n\r\nVideo\r\nID                                       : 1\r\nFormat                                   : HEVC\r\nFormat/Info                              : High Efficiency Video Coding\r\nFormat profile                           : Main <a href=\"/cdn-cgi/l/email-protection\" class=\"__cf_email__\" data-cfemail=\"d7e6e7979be3\">[email&#xA0;protected]</a>@Main\r\nCodec ID                                 : hev1\r\nCodec ID/Info                            : High Efficiency Video Coding\r\nDuration                                 : 43mn 6s\r\nBit rate                                 : 1 051 Kbps\r\nWidth                                    : 1 920 pixels\r\nHeight                                   : 1 080 pixels\r\nDisplay aspect ratio                     : 16:9\r\nFrame rate mode                          : Constant\r\nFrame rate                               : 25.000 fps\r\nColor space                              : YUV\r\nChroma subsampling                       : 4:2:0\r\nBit depth                                : 10 bits\r\nBits/(Pixel*Frame)                       : 0.020\r\nStream size                              : 324 MiB (87%)\r\nWriting library                          : x265 1.9:[Mac OS X][clang 7.0.2][64 bit] 10bit\r\nEncoded date                             : UTC 2018-03-26 13:41:57\r\nTagged date                              : UTC 2018-03-26 13:41:57\r\nColor range                              : Limited\r\nColor primaries                          : BT.709\r\nTransfer characteristics                 : BT.709\r\nMatrix coefficients                      : BT.709\r\n\r\nAudio\r\nID                                       : 2\r\nFormat                                   : AAC\r\nFormat/Info                              : Advanced Audio Codec\r\nFormat profile                           : LC\r\nCodec ID                                 : 40\r\nDuration                                 : 43mn 6s\r\nBit rate mode                            : Variable\r\nBit rate                                 : 150 Kbps\r\nChannel(s)                               : 2 channels\r\nChannel positions                        : Front: L R\r\nSampling rate                            : 48.0 KHz\r\nCompression mode                         : Lossy\r\nStream size                              : 46.3 MiB (12%)\r\nTitle                                    : Stereo / Stereo\r\nLanguage                                 : Swedish\r\nEncoded date                             : UTC 2018-03-26 13:41:57\r\nTagged date                              : UTC 2018-03-26 13:41:57","last_updated":"2018-03-31T12:07:43.816Z","parsed":{"xt":"urn:btih:0e62f9979b9dc111208731f02b21838d88577dd6","dn":"Hassel  S01 E04 - 1080p x265 HEVC - SWE (ENG SUBS) [BRSHNKV]","tr":["udp://exodus.desync.com:6969","udp://open.demonii.com:1337","udp://tracker.coppersurfer.tk:6969","udp://tracker.leechers-paradise.org:6969","udp://zer0day.ch:1337"],"infoHash":"0e62f9979b9dc111208731f02b21838d88577dd6","infoHashBuffer":{"type":"Buffer","data":[14,98,249,151,155,157,193,17,32,135,49,240,43,33,131,141,136,87,125,214]},"name":"Hassel  S01 E04 - 1080p x265 HEVC - SWE (ENG SUBS) [BRSHNKV]","announce":["udp://exodus.desync.com:6969","udp://open.demonii.com:1337","udp://tracker.coppersurfer.tk:6969","udp://tracker.leechers-paradise.org:6969","udp://zer0day.ch:1337"],"urlList":[]}}